<svg height="512" viewBox="0 0 60 60" width="512" xmlns="http://www.w3.org/2000/svg"><g id="018---Islamic-Symbol"><path id="Shape" d="m44.53 46.6c2.4767728-2.3362907 4.3238151-5.2599144 5.37-8.5.246155-.7325644-.0203671-1.5397021-.6543501-1.9816391-.633983-.4419371-1.4834852-.4127579-2.0856499.0716391-4 3.27-12.35 7.39-22.58-1.68-9.92-10-4-19.17-1-22.65.4922501-.5741779.5544719-1.4015544.1536334-2.04289589-.4008384-.64134154-1.1718133-.94797003-1.9036334-.75710411-2.2911186.62583397-4.4494919 1.6626663-6.37 3.06-5.1692462 3.7164475-8.53750544 9.4352493-9.2812719 15.7582153-.74376647 6.3229661 1.20551769 12.6672671 5.3712719 17.4817847 8.6 9.98 23.13 9.95 32.98 1.24zm-36.38-18.6c.90241799-7.6637607 6.0659475-14.1559403 13.33-16.76-3.48 4.33-8.82 14.11 1.73 24.76 11.1 9.84 20.38 5.37 24.49 2.34-.9493362 2.5865019-2.4903645 4.9151668-4.5 6.8-4.4900998 4.0561055-10.4067649 6.163805-16.45 5.86-11.75-.83-19.97-11.61-18.6-23z"/><path id="Shape" d="m14.76 19.53c-.4504485-.316067-1.0716174-.2088148-1.39.24-2.110924 3.0013765-3.2837596 6.5616457-3.37 10.23 0 .5522847.4477153 1 1 1s1-.4477153 1-1c.0802341-3.2628904 1.1240417-6.4291066 3-9.1.3026814-.4466349.1964825-1.0528536-.24-1.37z"/><path id="Shape" d="m29.93 15.3c.2519365.0855507.5275791.0671743.7659296-.0510626.2383504-.1182368.4197553-.3265848.5040704-.5789374.4477337-1.3710189 1.6330372-2.3703924 3.06-2.58l2.08-.32c.3273213-.0509227.6081836-.2606332.75-.56.91-1.89 1.16-2.85 2.35-3.61.3366967-.1738248.5462256-.52302118.5411726-.90190667s-.2238198-.7223699-.5650324-.88715375c-.3412126-.16478386-.7462527-.12255831-1.0461402.10906042-1.67 1.08-2.11 2.34-2.87 3.96-1.4534157.04376872-2.8674187.4828357-4.09 1.27-.9812572.7088177-1.7184691 1.7045779-2.11 2.85-.0950285.2556659-.0815008.5390541.0374488.7845056s.3329978.4316644.5925512.5154944z"/><path id="Shape" d="m38.22 13.51-3.66.56c-.6732692.120874-1.2248963.6033893-1.4342846 1.2545869-.2093883.6511977-.0423621 1.3647912.4342846 1.8554131l2.67 2.82-.63 3.9c-.1161306.6971382.1772996 1.3991847.7549824 1.8063338.5776829.4071492 1.3375165.4474399 1.9550176.1036662l3.19-1.81c3.08 1.71 3.41 2 4.09 2 .53949-.0015767 1.0511077-.2398387 1.3995023-.6517527.3483946-.4119141.4984607-.9559744.4104977-1.4882473l-.63-3.86 2.71-2.78c.4766467-.4906219.6436729-1.2042154.4342846-1.8554131-.2093883-.6511976-.7610154-1.1337129-1.4342846-1.2545869l-3.66-.56-1.61-3.45c-.3010665-.65087986-.9528629-1.06753641-1.67-1.06753641s-1.3689335.41665655-1.67 1.06753641zm3.28-2.29 1.5 3.21c.267798.5440908.7890018.9190575 1.39 1l3.44.53-2.55 2.63c-.4050466.4192179-.5901298 1.0040807-.5 1.58l.6 3.65-3-1.66c-.5528575-.3099396-1.2271425-.3099396-1.78 0l-3 1.66.6-3.65c.0901298-.5759193-.0949534-1.1607821-.5-1.58l-2.53-2.59 3.44-.53c.6009982-.0809425 1.122202-.4559092 1.39-1z"/><path id="Shape" d="m30 60c16.5685425 0 30-13.4314575 30-30s-13.4314575-30-30-30-30 13.4314575-30 30 13.4314575 30 30 30zm0-58c15.463973 0 28 12.536027 28 28s-12.536027 28-28 28-28-12.536027-28-28 12.536027-28 28-28z"/></g></svg>